<?xml version="1.0" standalone="no"?>
<!DOCTYPE svg PUBLIC "-//W3C//DTD SVG 20010904//EN"
 "http://www.w3.org/TR/2001/REC-SVG-20010904/DTD/svg10.dtd">
<svg version="1.0" xmlns="http://www.w3.org/2000/svg"
 width="880.000000pt" height="880.000000pt" viewBox="0 0 880.000000 880.000000"
 preserveAspectRatio="xMidYMid meet">

<g transform="translate(0.000000,880.000000) scale(0.100000,-0.100000)"
fill="#000000" stroke="none">
<path d="M2480 8608 c-79 -22 -111 -85 -105 -206 4 -71 2 -75 -27 -105 -60
-63 -64 -115 -12 -163 28 -27 44 -34 77 -35 76 -2 89 -10 102 -63 13 -52 36
-76 93 -101 27 -12 38 -12 55 -3 12 7 36 17 52 23 29 10 31 8 57 -33 29 -45
57 -61 98 -56 14 1 30 3 37 3 12 1 63 97 63 120 0 13 47 34 60 26 5 -3 11 -1
14 4 3 5 22 12 41 15 20 4 39 15 42 24 3 9 13 25 21 34 11 13 12 21 4 31 -6 7
-9 29 -7 50 2 27 -1 37 -11 37 -8 0 -14 8 -14 18 0 23 -29 64 -41 57 -5 -4 -9
-2 -9 3 0 9 -14 12 -75 15 -39 2 -40 3 -41 37 -1 93 -3 99 -41 124 -52 33
-125 40 -153 14 -12 -11 -19 -27 -16 -35 3 -8 6 -17 6 -19 0 -9 39 -4 45 6 11
18 45 11 70 -14 21 -21 24 -31 20 -80 -4 -50 -33 -113 -57 -124 -5 -2 -8 -8
-8 -13 0 -13 -52 -92 -67 -102 -7 -4 -13 -12 -13 -17 0 -15 -33 -50 -46 -50
-7 0 -14 -5 -16 -11 -6 -17 -88 -1 -88 17 0 8 -7 14 -15 14 -10 0 -15 11 -15
35 0 19 5 35 10 35 6 0 6 7 -1 19 -10 14 -8 22 7 39 38 41 45 52 39 61 -3 5
-2 11 2 13 12 5 53 85 53 101 0 8 11 22 25 31 28 19 32 50 10 72 -8 9 -15 24
-15 33 0 24 -66 94 -107 115 -36 18 -52 19 -103 4z m77 -74 c89 -82 97 -99 62
-139 -9 -11 -28 -42 -42 -70 -13 -27 -34 -69 -46 -92 -11 -23 -21 -48 -21 -56
0 -34 -91 -24 -125 13 -17 19 -17 20 6 39 68 53 73 59 75 92 1 18 -1 38 -4 44
-11 18 -12 79 -1 133 10 50 13 54 35 49 13 -2 24 0 24 4 0 14 7 11 37 -17z
m501 -340 c17 -18 32 -40 32 -49 0 -24 -45 -43 -140 -59 -45 -7 -60 -18 -61
-44 -1 -15 -2 -34 -3 -42 -2 -8 -3 -25 -4 -37 -1 -13 -7 -23 -14 -23 -20 0
-58 42 -58 64 0 34 12 66 21 60 5 -3 9 1 9 9 0 8 9 22 20 32 11 10 22 27 26
39 4 11 18 38 32 59 24 36 27 38 66 32 29 -4 51 -17 74 -41z"/>
<path d="M2444 7804 c-43 -51 -53 -74 -31 -74 16 0 87 79 87 97 0 27 -19 19
-56 -23z"/>
<path d="M6240 7800 c-63 -15 -135 -33 -160 -39 -25 -6 -99 -20 -166 -31 -66
-10 -157 -32 -202 -47 l-80 -27 -7 -95 c-3 -53 -9 -123 -13 -156 l-7 -59 -60
-13 c-33 -7 -85 -15 -115 -17 -46 -5 -266 -36 -350 -51 -34 -6 -145 -31 -199
-45 -24 -6 -60 -12 -80 -15 -51 -5 -91 -13 -226 -47 -66 -17 -141 -34 -167
-39 -27 -4 -53 -11 -59 -14 -13 -9 -113 -34 -154 -40 -82 -11 -286 -55 -305
-65 -13 -7 -42 -14 -66 -15 -24 -2 -54 -11 -68 -23 -20 -15 -49 -22 -116 -27
-54 -4 -106 -15 -128 -25 -22 -11 -43 -15 -51 -10 -8 4 -24 4 -36 0 -12 -4
-45 -8 -74 -8 -29 -1 -59 -6 -66 -12 -8 -7 -20 -10 -27 -7 -7 2 -26 -2 -41
-10 -15 -8 -31 -12 -35 -9 -11 6 -122 -13 -162 -28 -19 -7 -62 -14 -95 -15
-33 -1 -118 -17 -189 -36 -123 -33 -132 -37 -178 -82 -88 -86 -126 -142 -188
-276 -60 -131 -101 -368 -100 -577 1 -165 -7 -377 -15 -397 -2 -7 2 -47 11
-89 11 -62 13 -134 9 -358 -8 -412 -6 -563 10 -604 3 -8 1 -31 -5 -53 -6 -21
-12 -152 -15 -291 -2 -139 -7 -262 -11 -273 -4 -11 -17 -31 -30 -45 -12 -14
-42 -61 -66 -105 -24 -45 -65 -111 -93 -149 -123 -168 -171 -236 -187 -262
-10 -16 -33 -51 -53 -79 -163 -231 -315 -481 -315 -518 0 -7 -29 -70 -65 -142
-78 -158 -165 -353 -165 -372 0 -7 -6 -24 -14 -36 -25 -40 -49 -242 -42 -352
4 -55 11 -116 16 -135 5 -19 18 -72 30 -117 23 -92 52 -163 85 -208 11 -16 28
-43 36 -59 33 -68 189 -204 304 -266 44 -24 89 -51 101 -61 20 -19 153 -55
299 -82 124 -23 265 -14 366 23 45 16 86 33 93 38 6 5 32 12 57 16 26 4 64 16
85 26 21 11 44 20 51 20 6 0 31 21 55 46 24 26 62 59 85 74 24 15 101 84 173
153 99 95 130 131 130 150 0 14 7 27 15 30 8 4 23 23 34 44 10 21 33 46 50 56
16 10 40 32 52 50 13 18 65 75 117 127 52 52 105 116 118 143 13 26 31 47 39
47 8 0 26 23 40 50 14 28 41 67 59 88 29 33 76 94 161 212 42 57 95 141 95
150 0 4 21 30 46 56 62 66 129 156 167 225 23 42 38 58 52 57 21 -1 104 30
158 59 33 18 271 121 273 119 1 0 5 -170 8 -376 3 -206 7 -379 7 -385 1 -5 -2
-77 -6 -160 -4 -82 -7 -159 -6 -170 0 -11 1 -98 0 -193 -1 -160 1 -172 18
-172 16 -1 16 -2 2 -10 -14 -8 -16 -26 -14 -112 2 -57 4 -105 5 -108 1 -3 1
-9 0 -15 -1 -5 -1 -39 0 -75 1 -36 3 -97 4 -137 0 -39 4 -75 8 -79 4 -4 3 -13
-3 -21 -8 -8 -9 -33 -5 -69 3 -30 2 -63 -4 -73 -6 -12 -6 -30 1 -52 9 -32 11
-159 5 -272 -3 -53 21 -94 49 -83 17 6 17 -3 22 466 5 527 2 777 -12 819 -3
10 -2 22 2 24 7 4 9 253 3 307 -1 8 1 31 4 50 3 21 0 43 -8 55 -14 22 -9 147
8 173 4 7 3 18 -2 25 -15 19 -23 65 -12 72 5 3 10 20 9 38 0 18 2 53 5 79 4
28 2 49 -4 53 -8 5 -8 11 0 20 8 10 8 19 1 33 -6 12 -7 37 -3 62 l7 42 105
-69 c58 -39 117 -76 131 -84 94 -52 147 -95 153 -124 3 -16 3 -122 -1 -235 -4
-113 -6 -221 -6 -240 1 -19 1 -66 0 -105 -3 -287 -2 -295 13 -295 13 0 13 -1
0 -10 -12 -7 -14 -30 -12 -117 2 -59 8 -112 12 -117 5 -5 5 -18 1 -30 -5 -11
-7 -66 -4 -121 2 -55 3 -156 3 -225 -1 -69 -1 -143 -1 -165 1 -22 2 -117 4
-211 1 -132 5 -175 17 -192 11 -16 19 -19 29 -13 11 7 15 45 18 173 7 270 6
1046 -1 1147 -4 59 -3 98 4 106 7 8 7 21 1 37 -9 24 -7 95 4 175 3 23 2 59 -4
80 -6 23 -6 56 -1 83 6 33 5 49 -5 60 -17 19 -18 142 -2 188 9 26 9 35 -2 41
-7 5 -11 13 -8 18 3 5 2 15 -3 23 -5 9 -5 19 2 27 9 11 21 119 18 158 0 6 -3
66 -6 135 -3 69 -9 140 -14 159 -6 22 -6 50 1 77 8 31 8 52 0 75 -16 45 -15
46 27 59 20 7 69 27 107 45 39 19 113 50 165 70 52 19 110 42 128 50 18 8 40
15 48 15 9 0 28 6 42 14 43 22 102 46 177 73 39 14 100 41 137 59 37 19 71 34
76 34 5 0 8 -165 8 -367 0 -203 1 -474 1 -603 2 -459 -2 -800 -9 -800 -10 0
-76 128 -84 163 -3 17 -10 38 -15 47 -24 46 -36 113 -34 188 1 45 -1 82 -6 82
-12 0 1 54 13 58 5 2 3 11 -3 19 -8 9 -9 17 -3 21 20 13 30 54 37 139 1 17 5
35 10 39 4 4 7 11 7 15 0 12 -30 39 -44 39 -21 0 -58 -144 -71 -274 -3 -32 -8
-63 -11 -68 -7 -11 -7 -143 0 -174 17 -81 94 -266 117 -280 5 -3 7 -9 4 -14
-3 -5 7 -22 22 -38 61 -65 72 -95 71 -193 -1 -68 3 -93 13 -100 10 -6 10 -9 2
-9 -10 0 -12 -43 -10 -184 1 -102 5 -188 9 -192 4 -3 3 -14 -2 -23 -5 -9 -6
-102 -3 -207 3 -104 5 -196 5 -204 0 -8 -1 -67 -2 -131 -2 -83 2 -122 11 -137
14 -23 34 -29 43 -13 8 12 16 386 15 631 0 107 0 215 0 240 2 219 2 371 -2
651 -2 179 -1 346 3 371 4 27 2 65 -6 94 -7 28 -9 55 -4 65 12 22 10 79 -5
109 -14 29 -10 146 7 203 9 31 9 40 -2 47 -15 9 -22 70 -10 85 12 16 20 196
10 216 -7 12 -7 20 0 24 6 4 8 15 5 25 -6 17 -13 178 -18 372 l-2 98 80 34
c44 19 123 51 175 71 52 20 100 41 106 46 6 5 46 20 89 34 43 14 119 46 170
70 51 25 98 45 104 45 6 0 59 23 118 51 59 27 128 55 153 61 25 7 70 30 100
53 77 58 208 128 226 121 9 -4 18 3 23 17 15 36 30 374 22 477 -4 52 -4 111 0
131 14 60 18 201 8 249 -9 43 3 429 17 543 4 28 1 60 -6 76 -6 16 -13 55 -15
87 -1 33 -4 64 -6 69 -2 6 0 31 5 57 4 28 3 64 -4 89 -6 23 -15 80 -20 128
-12 123 -35 221 -65 281 -14 28 -24 57 -22 63 2 7 -30 77 -71 157 -115 222
-169 293 -370 492 -144 141 -217 199 -294 231 -33 14 -37 20 -44 64 -4 28 0
125 9 233 15 160 15 187 2 206 -8 12 -63 47 -124 78 -128 65 -135 66 -301 26z
m196 -58 c-22 -5 -30 3 -21 18 5 8 11 7 22 -2 15 -12 14 -13 -1 -16z m166
-109 c-5 -10 -12 -101 -16 -203 -8 -246 -16 -402 -21 -417 -2 -6 -23 -14 -47
-18 -24 -3 -54 -10 -68 -15 -14 -5 -77 -11 -141 -13 -63 -2 -124 -9 -135 -15
-44 -24 -46 -33 -51 -269 -6 -230 -6 -261 -2 -433 2 -52 -1 -180 -5 -285 -9
-224 -8 -187 -3 -360 3 -77 6 -248 8 -380 1 -132 7 -254 12 -272 14 -45 0 -57
-85 -78 -40 -10 -113 -35 -162 -56 -96 -42 -112 -46 -99 -26 7 11 11 119 27
742 3 110 8 238 11 285 3 47 7 288 10 535 3 248 8 502 11 565 3 63 7 213 8
333 2 120 7 222 12 226 5 4 43 14 84 21 41 7 90 19 109 27 18 7 48 13 65 13
17 0 76 12 131 26 55 15 129 32 165 40 36 7 88 20 115 28 69 20 78 20 67 -1z
m-482 -31 c0 -13 -12 -22 -22 -16 -10 6 -1 24 13 24 5 0 9 -4 9 -8z m-430
-228 c2 -80 1 -83 -16 -51 -11 21 -13 43 -8 89 8 74 22 53 24 -38z m90 -90 c0
-14 -4 -23 -9 -20 -5 3 -7 15 -4 26 7 28 13 25 13 -6z m-169 -61 c1 -32 3
-119 6 -193 2 -74 5 -246 6 -382 1 -195 4 -248 14 -248 17 0 17 -16 0 -23 -17
-6 -12 -304 5 -324 7 -9 7 -13 -1 -13 -8 0 -10 -89 -9 -325 2 -247 0 -325 -9
-325 -15 0 -98 -102 -124 -152 -25 -48 -43 -181 -37 -268 5 -66 34 -140 91
-230 34 -55 120 -133 178 -162 61 -30 189 -52 246 -43 60 10 123 38 123 55 0
12 2 13 9 1 7 -10 23 -2 72 36 35 27 70 62 77 77 8 15 20 30 28 33 8 3 14 12
14 21 0 8 6 23 13 31 7 9 19 36 26 61 7 25 16 57 20 72 5 14 8 68 7 120 -2 86
-5 99 -40 167 -42 85 -67 123 -108 165 -26 27 -28 36 -28 105 0 42 -3 326 -6
631 -6 584 -5 762 3 770 4 5 121 19 326 39 130 12 137 19 137 125 0 119 3 120
101 50 284 -204 553 -573 643 -883 72 -246 107 -526 107 -851 0 -237 -26 -911
-42 -1073 -6 -64 -9 -132 -5 -150 6 -32 5 -32 -72 -69 -42 -20 -108 -56 -147
-79 -38 -23 -101 -54 -140 -69 -38 -15 -92 -39 -119 -54 -27 -14 -55 -26 -62
-26 -7 0 -64 -22 -128 -50 -64 -27 -134 -55 -156 -61 -26 -8 -40 -18 -40 -29
0 -25 -9 -30 -35 -18 -20 9 -40 3 -122 -35 -54 -25 -141 -62 -193 -82 -136
-51 -274 -115 -283 -131 -4 -8 -15 -14 -23 -14 -24 0 -133 -39 -193 -70 -31
-15 -76 -33 -101 -40 -24 -7 -74 -27 -110 -45 -36 -18 -86 -38 -110 -45 -25
-6 -63 -22 -85 -34 -22 -13 -78 -36 -125 -51 -47 -15 -94 -36 -106 -46 -11
-11 -30 -19 -42 -19 -28 0 -123 -36 -246 -94 -55 -26 -126 -53 -157 -61 -32
-9 -138 -55 -236 -104 -146 -73 -182 -87 -198 -79 -11 6 -71 40 -132 77 -102
60 -136 91 -100 91 7 0 26 14 42 30 16 17 35 30 43 30 7 0 38 20 66 45 29 25
57 45 62 45 5 0 8 -36 6 -80 -3 -57 1 -89 12 -111 9 -18 13 -42 9 -60 -6 -33
11 -40 27 -10 11 21 19 763 20 1785 1 539 0 575 -20 675 -12 58 -28 142 -36
186 -8 44 -24 108 -34 142 -11 34 -20 72 -20 85 0 13 -7 34 -16 47 -9 13 -20
37 -24 55 -12 46 -104 249 -137 300 -119 186 -253 351 -370 452 -125 109 -300
218 -393 245 -83 23 -85 22 165 69 61 11 148 29 195 41 113 27 181 40 370 69
41 7 89 18 105 25 17 8 71 21 120 30 50 9 108 20 130 25 22 5 58 13 80 18 22
4 39 14 38 20 -4 15 9 16 23 2 7 -7 21 -6 45 3 19 8 65 20 102 27 38 7 71 18
73 24 3 7 20 10 43 8 21 -2 42 1 45 7 4 6 20 11 36 11 16 0 39 4 52 9 13 5 50
15 83 21 33 7 67 15 75 18 8 3 24 4 35 3 11 -1 43 5 70 14 28 8 64 15 81 15
17 0 67 9 110 20 74 18 197 36 272 39 l32 1 1 -57z m184 -32 c3 -5 1 -12 -5
-16 -5 -3 -10 -26 -10 -51 0 -24 -5 -44 -10 -44 -6 0 -9 19 -6 48 2 26 4 53 5
60 1 14 17 16 26 3z m-28 -158 c-3 -10 -5 -4 -5 12 0 17 2 24 5 18 2 -7 2 -21
0 -30z m12 -95 c0 -45 -2 -49 -10 -29 -9 22 -4 81 7 81 2 0 4 -24 3 -52z
m-2649 -229 c53 -13 116 -37 168 -65 65 -35 87 -42 97 -34 17 14 35 5 35 -19
0 -20 49 -68 102 -100 77 -46 295 -300 373 -434 15 -26 36 -52 46 -58 10 -5
19 -18 19 -29 0 -11 9 -39 19 -62 78 -171 103 -235 125 -318 14 -53 32 -115
41 -139 8 -24 19 -80 25 -125 5 -45 14 -97 20 -116 6 -22 11 -173 11 -400 l1
-365 -43 -22 c-24 -12 -50 -23 -57 -23 -17 0 -222 -68 -244 -80 -10 -6 -23
-10 -29 -10 -7 0 -35 -11 -64 -25 -28 -13 -63 -26 -76 -29 -71 -15 -139 -40
-327 -118 -40 -17 -75 -28 -79 -24 -3 3 -14 -1 -23 -9 -10 -9 -46 -21 -81 -27
-35 -6 -76 -20 -91 -30 -14 -10 -39 -18 -55 -18 -17 0 -33 -8 -40 -19 -11 -18
-47 -30 -109 -35 -17 -2 -42 -12 -54 -24 -13 -12 -26 -19 -30 -17 -11 7 -130
-16 -130 -25 0 -5 -8 -9 -17 -8 -26 0 -135 -31 -149 -43 -7 -6 -34 -16 -60
-22 -54 -14 -90 -55 -67 -78 10 -10 20 -9 45 5 31 16 66 26 300 91 48 13 106
33 130 43 48 22 84 34 143 51 22 6 69 20 104 31 35 11 72 20 80 20 9 0 25 6
36 14 11 7 45 19 75 26 30 7 60 16 65 20 6 4 31 13 58 21 26 7 47 17 47 22 0
4 4 6 9 3 4 -3 25 4 47 14 21 11 45 20 54 20 9 0 25 7 36 15 10 8 28 15 39 15
12 0 25 4 30 8 6 4 28 14 50 21 42 13 78 27 107 42 10 5 24 9 32 9 8 0 31 9
50 21 19 11 39 18 44 15 5 -3 41 10 80 29 39 20 86 38 104 42 18 3 39 10 46
16 19 15 20 8 11 -63 -5 -38 -4 -144 3 -259 11 -200 7 -895 -5 -907 -4 -4 -15
0 -24 9 -20 17 -73 12 -73 -8 0 -6 9 -20 20 -30 26 -23 25 -31 -4 -47 -50 -27
-137 -80 -149 -91 -7 -7 -26 -22 -43 -33 -30 -22 -31 -22 -55 -3 -22 18 -23
20 -6 30 9 5 17 16 17 24 0 8 6 12 14 9 9 -3 17 3 21 15 3 12 13 21 21 21 8 0
34 19 58 43 24 23 56 49 71 57 29 15 60 65 50 80 -11 18 -35 10 -88 -28 -29
-21 -71 -51 -93 -67 -23 -17 -69 -51 -103 -77 -34 -27 -64 -48 -66 -48 -3 0
-22 11 -43 24 -80 50 -374 207 -497 264 -140 66 -482 245 -499 262 -7 7 -1 10
17 10 19 0 27 5 27 18 1 16 1 16 11 0 9 -16 13 -17 39 -3 16 8 39 15 52 15 13
0 37 8 53 18 17 10 50 24 75 32 25 7 46 14 47 15 1 0 -4 17 -10 37 -7 20 -36
58 -67 87 -50 47 -56 50 -97 46 -24 -3 -54 -10 -66 -17 -12 -7 -35 -13 -52
-14 -16 -1 -54 -11 -83 -22 -30 -12 -79 -26 -110 -32 -32 -7 -71 -19 -89 -27
-30 -14 -33 -13 -86 22 l-54 36 -8 597 c-11 790 -5 1362 14 1577 14 146 74
431 105 500 51 111 179 228 280 257 146 41 242 42 396 7z m2567 -971 c-3 -8
-6 -5 -6 6 -1 11 2 17 5 13 3 -3 4 -12 1 -19z m70 -360 c-3 -7 -5 -2 -5 12 0
14 2 19 5 13 2 -7 2 -19 0 -25z m484 -143 c38 -84 52 -155 45 -234 -4 -42 -7
-85 -7 -95 0 -62 -125 -213 -207 -252 -69 -33 -151 -56 -166 -46 -6 3 -23 5
-39 3 -33 -3 -185 69 -207 99 -8 11 -22 20 -32 20 -25 0 -79 88 -71 118 4 16
1 22 -10 22 -23 0 -26 22 -23 140 4 127 36 251 71 274 22 15 23 14 30 -32 4
-26 9 -126 10 -223 3 -138 7 -183 19 -207 18 -36 50 -56 73 -48 9 4 24 -1 34
-10 17 -15 27 -14 151 15 73 18 163 41 201 52 l67 20 1 132 c0 73 0 177 -1
232 l-1 99 21 -19 c12 -11 30 -38 41 -60z m-531 -365 c0 -5 -4 -10 -10 -10 -5
0 -10 5 -10 10 0 6 5 10 10 10 6 0 10 -4 10 -10z m44 -45 c4 -13 2 -14 -14 -5
-23 13 -26 20 -6 20 8 0 16 -7 20 -15z m-2846 -1081 c18 -8 32 -21 32 -29 0
-14 -72 -47 -145 -64 -27 -7 -66 -16 -85 -21 -79 -20 -100 -20 -145 2 -25 12
-45 25 -45 29 0 9 57 29 83 29 23 0 192 38 222 51 11 4 27 10 35 12 8 3 15 6
16 6 0 1 15 -6 32 -15z m-578 -50 c22 -9 40 -22 40 -30 0 -8 5 -14 10 -14 30
0 18 -36 -32 -103 -31 -39 -64 -85 -74 -102 -11 -16 -41 -59 -67 -95 l-49 -65
39 -33 c42 -37 113 -72 146 -72 21 0 57 26 57 41 0 5 7 17 15 26 104 127 155
196 161 217 3 13 14 32 24 41 18 16 24 14 107 -32 168 -94 441 -223 471 -223
10 0 39 -13 63 -30 24 -16 47 -30 52 -30 4 0 50 -25 103 -56 53 -30 133 -73
177 -96 44 -22 98 -51 119 -64 l38 -24 -25 -67 c-14 -37 -32 -74 -40 -83 -8
-9 -15 -21 -15 -27 0 -6 -7 -17 -16 -24 -9 -7 -20 -22 -25 -34 -5 -11 -20 -38
-34 -60 -13 -22 -24 -50 -25 -62 0 -27 57 -93 106 -123 30 -19 37 -20 70 -8
25 9 42 24 55 51 11 21 17 42 14 47 -3 6 1 10 9 10 9 0 16 7 16 15 0 9 12 38
26 66 15 27 24 53 20 56 -3 3 3 12 14 20 11 8 20 21 20 29 0 8 4 22 9 32 5 9
12 25 15 35 7 21 12 19 167 -83 l86 -56 -23 -17 c-13 -9 -64 -72 -115 -140
-51 -67 -124 -162 -164 -212 -90 -114 -236 -310 -271 -367 -28 -44 -68 -93
-209 -252 -129 -146 -177 -205 -250 -306 -212 -293 -406 -428 -725 -505 -147
-36 -343 -36 -457 0 -199 63 -436 223 -499 338 -11 21 -20 26 -36 22 -18 -6
-19 -4 -14 22 5 22 -1 40 -28 81 -24 37 -41 82 -54 145 -32 144 -45 225 -37
237 4 6 0 22 -9 35 -9 13 -12 26 -7 30 5 3 12 44 16 93 8 94 70 302 104 351
10 14 23 43 29 63 6 21 26 63 45 95 20 32 39 72 43 88 4 17 15 41 24 55 10 14
41 77 70 140 28 63 70 136 91 162 22 26 57 78 78 115 84 149 265 419 336 502
25 29 45 58 45 64 0 7 18 39 40 72 23 33 40 72 40 87 0 23 4 28 25 28 13 0 43
-7 65 -16z m218 -129 c6 -5 -21 -46 -52 -79 -15 -17 -35 -47 -43 -66 -9 -19
-26 -46 -39 -59 -13 -13 -24 -33 -24 -45 -1 -28 -45 -82 -55 -67 -3 7 -14 9
-23 7 -22 -7 -38 4 -46 30 -4 15 -2 24 9 28 8 3 15 12 15 21 0 9 4 21 10 28 5
7 22 28 38 47 26 32 62 99 62 115 0 4 11 16 24 26 14 11 28 28 31 39 6 19 7
19 48 -1 23 -12 43 -23 45 -24z m2582 -540 c0 -11 -10 -15 -37 -14 l-38 1 35
13 c19 7 36 14 38 14 1 1 2 -6 2 -14z m-1300 -127 c22 -13 40 -26 40 -30 0 -3
-18 -37 -39 -75 -21 -38 -46 -84 -53 -103 -17 -39 -70 -152 -76 -160 -2 -3 -8
3 -13 13 -6 9 -19 17 -30 17 -27 0 -35 27 -15 49 9 10 16 28 16 42 0 13 12 35
25 48 16 15 23 30 20 41 -5 17 26 75 59 110 8 8 13 27 11 43 -4 33 4 34 55 5z
m1119 -7 c17 -11 7 -45 -12 -39 -13 5 -23 48 -10 48 4 0 14 -4 22 -9z m77
-176 c25 -19 14 -19 -22 0 -16 8 -22 15 -13 15 8 0 24 -7 35 -15z"/>
<path d="M5932 5140 c-27 -12 -56 -74 -48 -106 8 -32 63 -68 99 -66 43 4 77
39 77 82 -1 36 -19 70 -39 70 -6 0 -11 5 -11 11 0 5 -4 8 -9 4 -5 -3 -12 -1
-16 5 -7 12 -22 12 -53 0z"/>
<path d="M3801 4762 c-23 -8 -10 -32 17 -33 15 -1 44 -3 65 -5 32 -3 38 0 35
14 -2 13 -17 18 -55 22 -28 3 -56 4 -62 2z"/>
<path d="M3490 4744 c-58 -10 -70 -15 -70 -30 0 -13 7 -15 33 -10 17 3 56 8
85 12 32 4 51 11 49 18 -4 12 -55 17 -97 10z"/>
<path d="M4037 4693 c-17 -17 -3 -30 44 -42 51 -13 66 -11 54 9 -11 18 -88 44
-98 33z"/>
<path d="M3145 4606 c-72 -34 -90 -50 -81 -71 6 -17 8 -17 29 2 12 10 46 30
75 43 28 13 52 29 52 37 0 19 -18 16 -75 -11z"/>
<path d="M2790 4419 c-59 -40 -79 -63 -67 -76 9 -8 167 99 161 109 -10 16 -32
8 -94 -33z"/>
<path d="M2498 4295 c-3 -3 -23 -7 -44 -8 -29 -1 -40 -7 -42 -20 -3 -17 1 -18
45 -12 63 9 113 24 113 36 0 9 -63 13 -72 4z"/>
<path d="M2243 7577 c-59 -69 -70 -109 -21 -72 28 22 98 109 98 123 0 29 -22
14 -77 -51z"/>
<path d="M1979 7287 c-57 -71 -89 -126 -77 -133 6 -4 22 6 37 24 42 51 91 122
91 132 0 20 -26 8 -51 -23z"/>
<path d="M1717 6888 c-37 -56 -67 -121 -67 -144 0 -32 22 -9 56 58 20 39 42
78 50 85 16 16 18 39 5 48 -5 3 -25 -18 -44 -47z"/>
<path d="M1505 6398 c-21 -68 -22 -71 -7 -76 10 -3 52 96 52 123 0 8 -6 15
-13 15 -6 0 -21 -28 -32 -62z"/>
<path d="M1416 6079 c-2 -8 -9 -29 -15 -48 -16 -50 -14 -101 4 -101 8 0 15 3
15 8 0 4 5 36 11 71 7 43 7 67 0 74 -7 7 -12 6 -15 -4z"/>
<path d="M1340 5603 c0 -52 23 -102 34 -73 9 24 -8 113 -22 118 -8 2 -12 -11
-12 -45z"/>
<path d="M1380 5221 c13 -45 24 -61 37 -53 19 12 -5 82 -28 82 -15 0 -16 -5
-9 -29z"/>
<path d="M1435 4950 c-8 -14 35 -90 52 -90 18 0 16 14 -7 60 -20 40 -33 49
-45 30z"/>
<path d="M1585 4691 c-7 -13 16 -60 43 -84 30 -27 38 -3 13 37 -27 43 -47 60
-56 47z"/>
<path d="M1756 4472 c-8 -13 65 -80 95 -87 45 -11 42 13 -3 41 -24 15 -47 33
-51 40 -9 16 -33 19 -41 6z"/>
<path d="M2020 4291 c0 -15 43 -31 86 -31 24 0 34 5 34 15 0 8 -3 15 -7 15 -5
0 -32 3 -60 6 -37 4 -53 3 -53 -5z"/>
<path d="M5855 3198 c-2 -7 -11 -83 -20 -168 -21 -194 -80 -439 -136 -565 -36
-79 -60 -195 -80 -378 -11 -92 -10 -110 2 -118 9 -6 10 -9 2 -9 -9 0 -11 -22
-8 -77 8 -150 16 -236 24 -252 5 -9 6 -22 4 -29 -3 -7 0 -18 5 -25 5 -7 13
-37 17 -67 4 -30 14 -67 21 -82 8 -15 14 -39 14 -53 0 -14 13 -49 30 -78 16
-29 36 -70 43 -93 44 -123 81 -171 108 -138 10 13 7 26 -19 80 -18 35 -32 71
-32 79 0 9 -4 23 -9 33 -24 45 -43 98 -60 162 -9 38 -20 73 -24 77 -4 3 -7 23
-7 43 0 20 -4 40 -10 46 -13 13 -19 95 -25 347 -3 114 -2 207 3 207 5 0 9 19
9 43 0 23 9 62 18 87 10 25 19 64 19 86 1 23 7 48 13 55 17 22 21 42 12 65 -5
14 -3 28 6 40 8 11 15 26 15 35 0 9 9 27 19 41 13 16 19 37 17 61 -2 23 2 38
10 41 8 3 14 14 14 23 0 10 7 29 16 41 8 12 12 22 8 22 -3 0 -1 6 5 14 7 8 9
25 5 40 -3 14 -2 26 3 26 5 0 10 15 10 33 2 98 3 164 3 177 -1 8 2 33 6 56 4
25 2 50 -5 63 -13 23 -39 28 -46 9z"/>
<path d="M5414 3015 c-4 -8 -4 -30 -1 -48 14 -77 24 -123 29 -132 3 -6 9 -50
12 -100 4 -49 9 -115 13 -145 6 -51 9 -113 12 -233 1 -46 2 -48 28 -45 24 3
27 8 31 48 13 152 1 373 -23 424 -10 20 -15 42 -12 50 3 8 1 16 -4 18 -6 2 -7
12 -1 28 7 18 4 37 -10 69 -10 24 -16 46 -13 49 9 9 -17 32 -37 32 -10 0 -21
-7 -24 -15z"/>
<path d="M4802 2108 c-14 -17 -8 -119 14 -248 15 -91 20 -196 16 -305 -1 -16
-2 -39 -1 -50 1 -31 -9 -164 -13 -172 -6 -16 0 -401 9 -478 l8 -80 30 0 c28 0
30 2 26 30 -11 71 -2 465 15 675 3 41 5 84 5 95 -1 11 -1 34 -1 51 0 18 -6 34
-14 37 -10 4 -11 17 -6 54 4 26 5 53 1 58 -4 6 -6 39 -5 75 0 36 -2 72 -6 80
-15 30 -31 117 -24 133 4 11 -1 26 -11 37 -21 23 -29 25 -43 8z"/>
<path d="M5413 2038 c-4 -7 -8 -132 -10 -278 -1 -146 -4 -308 -8 -360 -3 -53
-1 -129 5 -170 10 -73 38 -180 49 -190 3 -3 6 -9 6 -15 0 -5 15 -41 33 -80 18
-38 38 -81 44 -95 6 -14 14 -33 19 -42 5 -10 9 -25 9 -33 0 -8 5 -15 10 -15 6
0 10 -9 10 -19 0 -11 4 -22 9 -25 8 -5 23 -67 27 -116 1 -14 9 -44 18 -67 9
-25 15 -70 15 -109 -1 -71 15 -102 46 -90 14 5 15 20 10 116 -3 60 -11 137
-19 170 -8 33 -11 60 -8 60 3 0 1 5 -6 12 -7 7 -12 19 -12 28 0 8 -6 26 -13
41 -8 14 -26 59 -40 101 -15 42 -40 105 -57 139 -16 34 -30 70 -30 80 0 10 -4
20 -9 23 -8 5 -19 43 -28 96 -3 14 -5 60 -6 102 -1 42 -5 79 -9 83 -3 4 -2 19
2 35 6 20 4 32 -5 40 -13 11 -10 97 5 113 4 5 2 20 -5 34 -8 16 -10 32 -5 42
13 25 29 101 21 105 -3 2 -5 37 -4 77 0 40 -3 83 -8 96 -5 14 -5 33 1 48 13
34 -3 75 -29 75 -11 0 -23 -6 -28 -12z"/>
<path d="M5886 752 c-5 -8 1 -281 8 -332 1 -14 4 -35 4 -47 2 -17 8 -23 26
-23 35 0 38 15 34 228 -1 23 -5 42 -10 42 -5 0 -6 12 -2 28 9 43 4 93 -11 104
-14 10 -43 10 -49 0z"/>
</g>
</svg>
